<svg width="100" height="100" viewBox="0 0 100 100" fill="none" xmlns="http://www.w3.org/2000/svg">
    <g clip-path="url(#clip0_107_2)">
        <path
            d="M49.9999 8.33337C41.7591 8.33337 33.7032 10.7771 26.8512 15.3555C19.9991 19.9339 14.6586 26.4413 11.505 34.0549C8.35131 41.6685 7.52617 50.0463 9.13388 58.1288C10.7416 66.2113 14.71 73.6356 20.5372 79.4628C26.3643 85.29 33.7886 89.2584 41.8712 90.8661C49.9537 92.4738 58.3315 91.6487 65.9451 88.495C73.5587 85.3414 80.0661 80.0008 84.6445 73.1488C89.2229 66.2967 91.6666 58.2409 91.6666 50C91.6666 44.5283 90.5889 39.1101 88.4949 34.0549C86.401 28.9997 83.3318 24.4064 79.4627 20.5373C75.5936 16.6682 71.0003 13.599 65.9451 11.5051C60.8899 9.41111 55.4717 8.33337 49.9999 8.33337ZM49.9999 83.3334C43.4072 83.3334 36.9626 81.3784 31.4809 77.7157C25.9993 74.053 21.7269 68.847 19.204 62.7562C16.681 56.6653 16.0209 49.9631 17.3071 43.497C18.5933 37.031 21.768 31.0916 26.4297 26.4298C31.0915 21.7681 37.0309 18.5934 43.4969 17.3072C49.963 16.021 56.6652 16.6811 62.7561 19.2041C68.8469 21.727 74.0529 25.9994 77.7156 31.481C81.3783 36.9627 83.3333 43.4073 83.3333 50C83.3333 58.8406 79.8214 67.3191 73.5702 73.5703C67.319 79.8215 58.8405 83.3334 49.9999 83.3334Z"
            fill="#FF3562" fill-opacity="0.38" />
        <path
            d="M49.9999 70.8333C52.3011 70.8333 54.1666 68.9679 54.1666 66.6667C54.1666 64.3655 52.3011 62.5 49.9999 62.5C47.6987 62.5 45.8333 64.3655 45.8333 66.6667C45.8333 68.9679 47.6987 70.8333 49.9999 70.8333Z"
            fill="#FF3562" fill-opacity="0.38" />
        <path
            d="M49.9999 29.1667C48.8948 29.1667 47.835 29.6057 47.0536 30.3871C46.2722 31.1685 45.8333 32.2283 45.8333 33.3334V54.1667C45.8333 55.2718 46.2722 56.3316 47.0536 57.113C47.835 57.8944 48.8948 58.3334 49.9999 58.3334C51.105 58.3334 52.1648 57.8944 52.9462 57.113C53.7276 56.3316 54.1666 55.2718 54.1666 54.1667V33.3334C54.1666 32.2283 53.7276 31.1685 52.9462 30.3871C52.1648 29.6057 51.105 29.1667 49.9999 29.1667Z"
            fill="#FF3562" fill-opacity="0.38" />
    </g>
    <defs>
        <clipPath id="clip0_107_2">
            <rect width="100" height="100" fill="white" />
        </clipPath>
    </defs>
</svg>