<svg enable-background="new 0 0 512 512" viewBox="0 0 512 512" xmlns="http://www.w3.org/2000/svg"><path d="m411 211.348-25.188 252.382h-339.062l-23.25-339.746h280.938z" fill="#d8b77c"/><path d="m204.055 107.41c0 26.844-21.717 48.605-48.507 48.605-16.242 0-30.617-8-39.421-20.28-7.658 16.747-24.532 28.381-44.119 28.381-26.79 0-48.507-21.761-48.507-48.605s21.717-48.605 48.507-48.605c4.277 0 8.424.557 12.375 1.599-1.039-3.959-1.595-8.114-1.595-12.4 0-26.844 21.717-48.605 48.507-48.605s48.507 21.761 48.507 48.605c0 2.991-.271 5.918-.787 8.76 14.93 8.286 25.04 24.232 25.04 42.545z" fill="#5ba14d"/><path d="m309.949 144.565c0 36.826-29.794 66.68-66.546 66.68-22.282 0-42.003-10.975-54.081-27.822-10.506 22.975-33.655 38.935-60.526 38.935-36.752 0-66.546-29.854-66.546-66.68s29.794-66.68 66.546-66.68c5.868 0 11.557.764 16.977 2.193-1.426-5.431-2.189-11.131-2.189-17.011 0-36.826 29.794-66.68 66.546-66.68s66.546 29.854 66.546 66.68c0 4.103-.372 8.119-1.08 12.017 20.484 11.368 34.353 33.244 34.353 58.368z" fill="#8eb55e"/><path d="m288.738 7.5c29.426 0 53.281 23.855 53.281 53.281v247.637h-106.562v-247.637c0-29.426 23.855-53.281 53.281-53.281z" fill="#fbb03b"/><path d="m342.019 60.889v247.529h-24.019v-247.529c0-25.345-17.632-46.55-41.272-52.01 3.862-.892 7.878-1.379 12.01-1.379 29.427 0 53.281 23.903 53.281 53.389z" fill="#f99a1e"/><path d="m71.938 164.754c16.229 0 29.385 13.183 29.385 29.445v310.301h-29.386l-41.524-34.951c-4.383-3.689-6.913-9.13-6.913-14.865v-330.7z" fill="#f9e1a2"/><path d="m331.968 211.348h79.032v273.738c0 10.722-8.674 19.414-19.375 19.414h-319.687v-339.746h127.469c24.092 0 47.468 8.216 66.281 23.297 18.813 15.081 42.188 23.297 66.28 23.297z" fill="#eacc8f"/><path d="m323.813 359.87c0-45.569 36.867-82.51 82.344-82.51s82.344 36.941 82.344 82.51-36.867 82.51-82.344 82.51-82.344-36.942-82.344-82.51z" fill="#c1e9fd"/><path d="m488.5 359.87c0 45.569-36.867 82.51-82.344 82.51-4.282 0-8.488-.329-12.594-.96 39.499-6.074 69.75-40.271 69.75-81.549s-30.251-75.475-69.75-81.549c4.106-.631 8.311-.96 12.594-.96 45.477-.002 82.344 36.938 82.344 82.508z" fill="#a4e0f7"/><path d="m472.881 279.975-48.893 119.396c-2.041 4.985-6.663 8.433-12.014 8.962-.479.047-.957.071-1.432.071-4.834 0-9.391-2.417-12.101-6.503l-32.596-49.163c-4.441-6.698-2.622-15.736 4.063-20.185 6.684-4.45 15.703-2.627 20.145 4.071l17.443 26.309 38.499-94.013c3.046-7.44 11.535-10.997 18.96-7.943 7.423 3.053 10.973 11.559 7.926 18.998z" fill="#5ba14d"/><path d="m136.773 64.025c4.993-36.5 36.529-64.025 73.357-64.025 6.94 0 13.813.963 20.429 2.861 3.981 1.143 6.283 5.297 5.14 9.278s-5.295 6.283-9.278 5.14c-5.27-1.512-10.751-2.279-16.291-2.279-29.366 0-54.514 21.95-58.496 51.059-.514 3.759-3.73 6.484-7.421 6.484-.338 0-.681-.023-1.026-.07-4.104-.562-6.976-4.343-6.414-8.448zm170.998-2.492c-4.199 4.018-11.096 6.416-18.449 6.416s-14.251-2.398-18.45-6.416c-2.992-2.863-7.74-2.759-10.604.234-2.864 2.992-2.759 7.74.234 10.604 7.026 6.723 17.53 10.578 28.82 10.578 11.289 0 21.793-3.855 28.819-10.578 2.993-2.863 3.098-7.611.234-10.604-2.863-2.994-7.611-3.099-10.604-.234zm0 38.828c-4.199 4.018-11.096 6.416-18.449 6.416s-14.251-2.398-18.45-6.416c-2.992-2.863-7.74-2.759-10.604.234-2.864 2.992-2.759 7.74.234 10.604 7.026 6.723 17.53 10.578 28.82 10.578 11.289 0 21.793-3.855 28.819-10.578 2.993-2.863 3.098-7.611.234-10.604-2.863-2.993-7.611-3.099-10.604-.234zm0 38.828c-4.199 4.018-11.096 6.416-18.449 6.416s-14.251-2.398-18.45-6.416c-2.992-2.864-7.74-2.759-10.604.234-2.864 2.992-2.759 7.74.234 10.604 7.026 6.723 17.53 10.578 28.82 10.578 11.289 0 21.793-3.855 28.819-10.578 2.993-2.863 3.098-7.611.234-10.604-2.863-2.993-7.611-3.099-10.604-.234zm95.729 130.713v-51.054h-71.532c-25.7 0-50.905-8.859-70.971-24.945-17.415-13.96-39.288-21.648-61.59-21.648h-119.97v88.923c0 4.143-3.358 7.5-7.5 7.5s-7.5-3.357-7.5-7.5v-92.932l-33.437-28.145v314.583c0 3.531 1.546 6.858 4.242 9.127l29.195 24.573v-199.703c0-4.143 3.358-7.5 7.5-7.5s7.5 3.357 7.5 7.5v208.319h312.188c6.548 0 11.875-5.345 11.875-11.914v-17.473c0-4.143 3.358-7.5 7.5-7.5s7.5 3.357 7.5 7.5v17.473c0 14.841-12.056 26.914-26.875 26.914h-319.688s-.001 0-.002 0h-.002c-.002 0-.004 0-.006 0-.392 0-.774-.04-1.149-.098-.065-.01-.129-.018-.194-.029-.372-.068-.734-.165-1.084-.285-.064-.022-.127-.046-.19-.07-.362-.135-.711-.294-1.044-.481-.044-.025-.087-.053-.131-.079-.354-.209-.693-.442-1.007-.705-.006-.005-.014-.009-.02-.014l-41.524-34.951c-6.091-5.127-9.584-12.637-9.584-20.604v-330.7c0-.018.004-.035.004-.053l-.004-8.419c0-30.937 25.125-56.105 56.007-56.105 1.129 0 2.257.034 3.381.102-.068-1.132-.102-2.267-.102-3.402.001-30.938 25.126-56.107 56.008-56.107 7.045 0 13.918 1.296 20.426 3.851 3.856 1.514 5.754 5.867 4.24 9.723-1.514 3.855-5.866 5.756-9.722 4.24-4.755-1.868-9.782-2.814-14.944-2.814-22.611 0-41.007 18.439-41.007 41.105 0 3.554.454 7.085 1.349 10.495.678 2.579-.066 5.325-1.954 7.211-1.887 1.885-4.634 2.626-7.213 1.945-3.398-.896-6.918-1.351-10.462-1.351-22.611.001-41.007 18.441-41.007 41.107l.002 4.984 25.099 21.125c6.578-34.202 36.664-60.123 72.695-60.123 6.389 0 12.744.821 18.888 2.441 4.005 1.056 6.396 5.158 5.341 9.164-1.056 4.005-5.159 6.397-9.164 5.34-4.897-1.291-9.966-1.945-15.065-1.945-31.716 0-57.661 25.196-58.982 56.665l4.86 4.091h124.733c9.669 0 19.268 1.256 28.55 3.677v-100.042c0-33.575 27.266-60.889 60.781-60.889s60.781 27.314 60.781 60.889v90.486l66.229 54.167c.003.002.005.005.008.007.192.157.376.324.551.499.088.088.166.183.249.274.08.089.164.174.241.267.096.116.181.238.268.359.056.076.115.15.168.229.079.117.147.239.219.36.053.09.11.178.16.271.058.107.106.218.158.328.054.113.11.223.158.339.039.094.07.19.105.286.05.135.102.269.144.407.026.085.044.173.067.259.04.149.081.298.112.45.021.105.032.212.049.318.021.134.046.267.06.404.025.245.037.492.037.739 0 .004.001.008.001.012v59.362c5.787.796 11.467 2.146 16.994 4.06l3.559-8.692c2.235-5.459 6.46-9.717 11.897-11.989 5.429-2.27 11.416-2.287 16.856-.047 11.231 4.615 16.622 17.525 12.014 28.775l-48.894 119.396c-3.101 7.572-10.081 12.777-18.215 13.584-.711.07-1.442.106-2.171.106-7.399 0-14.259-3.686-18.352-9.858l-32.595-49.163c-6.714-10.128-3.953-23.843 6.157-30.573 4.902-3.264 10.779-4.417 16.547-3.255 5.773 1.165 10.747 4.512 14.005 9.425l9.618 14.507 23.872-58.295c-7.592-2.535-15.521-3.832-23.637-3.832-41.269 0-74.844 33.649-74.844 75.01s33.575 75.01 74.844 75.01 74.842-33.652 74.842-75.012c0-12.146-2.961-24.206-8.563-34.876-1.926-3.667-.514-8.201 3.154-10.127 3.666-1.927 8.201-.513 10.126 3.154 6.727 12.813 10.283 27.284 10.283 41.849 0 49.632-40.304 90.01-89.844 90.01s-89.844-40.378-89.844-90.01c0-48.741 38.872-88.554 87.188-89.967zm10.936 95.872c-1.052 2.571-3.439 4.349-6.204 4.622-2.768.27-5.453-1.004-6.988-3.319l-17.443-26.309c-1.041-1.569-2.627-2.639-4.469-3.01-.466-.094-.934-.141-1.399-.141-1.367 0-2.705.402-3.871 1.178-3.237 2.155-4.12 6.551-1.967 9.798l32.595 49.163c1.307 1.971 3.494 3.147 5.85 3.147.235 0 .466-.011.686-.033.002 0 .004 0 .006-.001 2.595-.257 4.823-1.92 5.814-4.34l48.894-119.396c1.477-3.606-.245-7.742-3.838-9.22-1.735-.713-3.64-.708-5.367.015-1.736.726-3.086 2.087-3.801 3.833zm-64.917-195.021v33.095h40.464zm-17.551 33.095h2.551v-142.959c0-25.303-20.538-45.889-45.781-45.889s-45.781 20.586-45.781 45.889v105.11c9.806 4.075 19.064 9.5 27.422 16.201 17.414 13.959 39.288 21.648 61.589 21.648z"/></svg>